<?xml version="1.0" encoding="utf-8" standalone="no"?>
<!DOCTYPE svg PUBLIC "-//W3C//DTD SVG 1.1//EN"
  "http://www.w3.org/Graphics/SVG/1.1/DTD/svg11.dtd">
<svg xmlns:xlink="http://www.w3.org/1999/xlink" width="564.630491pt" height="363.468795pt" viewBox="0 0 564.630491 363.468795" xmlns="http://www.w3.org/2000/svg" version="1.1">
 <metadata>
  <rdf:RDF xmlns:dc="http://purl.org/dc/elements/1.1/" xmlns:cc="http://creativecommons.org/ns#" xmlns:rdf="http://www.w3.org/1999/02/22-rdf-syntax-ns#">
   <cc:Work>
    <dc:type rdf:resource="http://purl.org/dc/dcmitype/StillImage"/>
    <dc:date>2026-06-03T20:45:03.893392</dc:date>
    <dc:format>image/svg+xml</dc:format>
    <dc:creator>
     <cc:Agent>
      <dc:title>Matplotlib v3.10.3, https://matplotlib.org/</dc:title>
     </cc:Agent>
    </dc:creator>
   </cc:Work>
  </rdf:RDF>
 </metadata>
 <defs>
  <style type="text/css">*{stroke-linejoin: round; stroke-linecap: butt}</style>
 </defs>
 <g id="figure_1">
  <g id="patch_1">
   <path d="M 0 363.468795 
L 564.630491 363.468795 
L 564.630491 0 
L 0 0 
z
" style="fill: #ffffff"/>
  </g>
  <g id="axes_1">
   <g id="patch_2">
    <path d="M 51.579062 319.713482 
L 557.430491 319.713482 
L 557.430491 25.190625 
L 51.579062 25.190625 
z
" style="fill: #ffffff"/>
   </g>
   <g id="matplotlib.axis_1">
    <g id="xtick_1">
     <g id="line2d_1">
      <path d="M 112.894387 319.713482 
L 112.894387 25.190625 
" clip-path="url(#p50456b84f1)" style="fill: none; stroke: #cccccc; stroke-linecap: round"/>
     </g>
     <g id="text_1">
      <!-- 夯 -->
      <g style="fill: #262626" transform="translate(107.394387 338.006607) scale(0.11 -0.11)">
       <defs>
        <path id="MicrosoftYaHei-592f" d="M 569 2134 
L 2400 2134 
Q 2425 2384 2456 2697 
L 2944 2697 
Q 2913 2384 2875 2134 
L 5631 2134 
Q 5594 1247 5531 359 
Q 5475 -697 4294 -666 
Q 3700 -666 3069 -653 
Q 3038 -372 2981 -147 
Q 3675 -184 4281 -184 
Q 5006 -241 5044 453 
Q 5100 1103 5125 1697 
L 2819 1697 
Q 2588 -172 625 -816 
Q 419 -547 263 -397 
Q 2144 147 2338 1697 
L 569 1697 
L 569 2134 
z
M 300 4497 
L 2838 4497 
Q 2969 4859 3019 5341 
L 3531 5266 
Q 3456 4828 3344 4497 
L 6119 4497 
L 6119 4059 
L 3831 4059 
Q 4606 3084 6319 2891 
Q 6138 2628 5988 2372 
Q 3994 2816 3306 4059 
L 3163 4059 
Q 2600 2897 381 2234 
Q 256 2459 75 2697 
Q 2044 3216 2619 4059 
L 300 4059 
L 300 4497 
z
" transform="scale(0.015625)"/>
       </defs>
       <use xlink:href="#MicrosoftYaHei-592f"/>
      </g>
     </g>
    </g>
    <g id="xtick_2">
     <g id="line2d_2">
      <path d="M 208.699582 319.713482 
L 208.699582 25.190625 
" clip-path="url(#p50456b84f1)" style="fill: none; stroke: #cccccc; stroke-linecap: round"/>
     </g>
     <g id="text_2">
      <!-- 顶级 -->
      <g style="fill: #262626" transform="translate(197.699582 338.006607) scale(0.11 -0.11)">
       <defs>
        <path id="MicrosoftYaHei-9876" d="M 2606 3647 
L 3775 3647 
L 3950 4491 
L 2538 4491 
L 2538 4941 
L 6263 4941 
L 6263 4491 
L 4456 4491 
L 4256 3647 
L 5981 3647 
L 5981 653 
L 5500 653 
L 5500 3197 
L 3088 3197 
L 3088 628 
L 2606 628 
L 2606 3647 
z
M 94 4791 
L 2419 4791 
L 2419 4334 
L 1588 4334 
L 1588 141 
Q 1588 -603 819 -603 
Q 500 -603 306 -591 
Q 275 -303 206 -34 
Q 494 -103 800 -103 
Q 1100 -103 1100 184 
L 1100 4334 
L 94 4334 
L 94 4791 
z
M 4044 2891 
L 4525 2891 
L 4525 2203 
Q 4525 1422 4356 872 
Q 5413 197 6281 -453 
L 5931 -872 
Q 5094 -178 4175 441 
Q 4113 316 4038 216 
Q 3519 -497 2244 -897 
Q 2125 -691 1944 -447 
Q 3125 -109 3613 491 
Q 4044 1053 4044 2191 
L 4044 2891 
z
" transform="scale(0.015625)"/>
        <path id="MicrosoftYaHei-7ea7" d="M 3272 2522 
Q 3175 466 1994 -803 
Q 1769 -578 1594 -453 
Q 2394 391 2631 1428 
Q 2859 2322 2844 4497 
L 2288 4497 
L 2288 4941 
L 5406 4941 
L 5406 4472 
L 4800 3216 
L 5838 3216 
L 5838 2753 
Q 5475 1622 4853 775 
Q 5456 163 6331 -291 
Q 6144 -472 5913 -753 
Q 5088 -231 4522 359 
Q 3881 -366 3013 -847 
Q 2838 -616 2663 -447 
Q 3563 63 4188 756 
Q 3625 1500 3272 2522 
z
M 4281 3228 
L 4881 4497 
L 3319 4497 
Q 3322 4050 3316 3653 
Q 3794 2034 4513 1153 
Q 5044 1878 5319 2772 
L 4281 2772 
L 4281 3228 
z
M 938 1897 
Q 1588 1966 2263 2053 
Q 2238 1847 2213 1647 
Q 1194 1522 413 1391 
L 300 1834 
Q 672 2163 1234 3028 
Q 753 2994 244 2941 
L 125 3334 
Q 644 3909 1331 5334 
L 1806 5128 
Q 1163 4041 681 3366 
Q 1031 3378 1469 3397 
Q 1694 3766 1950 4209 
L 2400 3997 
Q 1456 2566 938 1897 
z
M 100 441 
Q 1100 678 2131 959 
Q 2138 741 2150 528 
Q 1094 241 275 -3 
L 100 441 
z
" transform="scale(0.015625)"/>
       </defs>
       <use xlink:href="#MicrosoftYaHei-9876"/>
       <use xlink:href="#MicrosoftYaHei-7ea7" transform="translate(100 0)"/>
      </g>
     </g>
    </g>
    <g id="xtick_3">
     <g id="line2d_3">
      <path d="M 304.504777 319.713482 
L 304.504777 25.190625 
" clip-path="url(#p50456b84f1)" style="fill: none; stroke: #cccccc; stroke-linecap: round"/>
     </g>
     <g id="text_3">
      <!-- 人上人 -->
      <g style="fill: #262626" transform="translate(288.004777 338.006607) scale(0.11 -0.11)">
       <defs>
        <path id="MicrosoftYaHei-4eba" d="M 100 -303 
Q 2825 1272 2981 5222 
L 3531 5222 
Q 3497 4553 3400 3947 
Q 4175 822 6313 -166 
Q 6050 -453 5850 -709 
Q 3994 341 3203 3006 
Q 2519 431 494 -778 
Q 325 -547 100 -303 
z
" transform="scale(0.015625)"/>
        <path id="MicrosoftYaHei-4e0a" d="M 163 47 
L 2613 47 
L 2613 5209 
L 3181 5209 
L 3181 3328 
L 5750 3328 
L 5750 2828 
L 3181 2828 
L 3181 47 
L 6244 47 
L 6244 -453 
L 163 -453 
L 163 47 
z
" transform="scale(0.015625)"/>
       </defs>
       <use xlink:href="#MicrosoftYaHei-4eba"/>
       <use xlink:href="#MicrosoftYaHei-4e0a" transform="translate(100 0)"/>
       <use xlink:href="#MicrosoftYaHei-4eba" transform="translate(200 0)"/>
      </g>
     </g>
    </g>
    <g id="xtick_4">
     <g id="line2d_4">
      <path d="M 400.309972 319.713482 
L 400.309972 25.190625 
" clip-path="url(#p50456b84f1)" style="fill: none; stroke: #cccccc; stroke-linecap: round"/>
     </g>
     <g id="text_4">
      <!-- NPC -->
      <g style="fill: #262626" transform="translate(388.794347 338.006607) scale(0.11 -0.11)">
       <defs>
        <path id="MicrosoftYaHei-4e" d="M 4578 0 
L 3838 0 
L 1403 3766 
Q 1300 3925 1238 4081 
L 1219 4081 
Q 1244 3919 1244 3403 
L 1244 0 
L 625 0 
L 625 4841 
L 1409 4841 
L 3778 1141 
Q 3947 878 3978 806 
L 3991 806 
Q 3959 1013 3959 1513 
L 3959 4841 
L 4578 4841 
L 4578 0 
z
" transform="scale(0.015625)"/>
        <path id="MicrosoftYaHei-50" d="M 1250 1809 
L 1250 0 
L 625 0 
L 625 4841 
L 2000 4841 
Q 2784 4841 3217 4462 
Q 3650 4084 3650 3381 
Q 3650 2669 3144 2226 
Q 2638 1784 1878 1809 
L 1250 1809 
z
M 1250 4291 
L 1250 2359 
L 1828 2359 
Q 2400 2359 2697 2617 
Q 2994 2875 2994 3356 
Q 2994 4291 1888 4291 
L 1250 4291 
z
" transform="scale(0.015625)"/>
        <path id="MicrosoftYaHei-43" d="M 3938 200 
Q 3403 -81 2597 -81 
Q 1556 -81 934 580 
Q 313 1241 313 2328 
Q 313 3497 1013 4209 
Q 1713 4922 2791 4922 
Q 3484 4922 3938 4725 
L 3938 4072 
Q 3419 4359 2797 4359 
Q 1988 4359 1478 3820 
Q 969 3281 969 2366 
Q 969 1497 1444 986 
Q 1919 475 2688 475 
Q 3406 475 3938 800 
L 3938 200 
z
" transform="scale(0.015625)"/>
       </defs>
       <use xlink:href="#MicrosoftYaHei-4e"/>
       <use xlink:href="#MicrosoftYaHei-50" transform="translate(81.298828 0)"/>
       <use xlink:href="#MicrosoftYaHei-43" transform="translate(142.480469 0)"/>
      </g>
     </g>
    </g>
    <g id="xtick_5">
     <g id="line2d_5">
      <path d="M 496.115166 319.713482 
L 496.115166 25.190625 
" clip-path="url(#p50456b84f1)" style="fill: none; stroke: #cccccc; stroke-linecap: round"/>
     </g>
     <g id="text_5">
      <!-- 拉完了 -->
      <g style="fill: #262626" transform="translate(479.615166 338.006607) scale(0.11 -0.11)">
       <defs>
        <path id="MicrosoftYaHei-62c9" d="M 88 1991 
Q 513 2063 1000 2159 
L 1000 3497 
L 150 3497 
L 150 3934 
L 1000 3934 
L 1000 5328 
L 1469 5328 
L 1469 3934 
L 2263 3934 
L 2263 3497 
L 1469 3497 
L 1469 2256 
Q 1909 2353 2394 2466 
Q 2400 2222 2413 1997 
Q 2044 1922 1469 1791 
L 1469 -72 
Q 1469 -741 900 -753 
Q 625 -759 238 -759 
Q 200 -497 156 -241 
Q 531 -278 738 -278 
Q 994 -278 1000 9 
L 1000 1681 
Q 628 1591 188 1484 
L 88 1991 
z
M 2113 -28 
L 4253 -28 
Q 4697 1434 5094 3284 
L 5638 3159 
Q 5259 1653 4747 -28 
L 6300 -28 
L 6300 -503 
L 2113 -503 
L 2113 -28 
z
M 2450 4234 
L 4222 4234 
Q 3991 4625 3663 5084 
L 4075 5341 
Q 4425 4897 4669 4503 
L 4259 4234 
L 6056 4234 
L 6056 3759 
L 2450 3759 
L 2450 4234 
z
M 2756 3153 
L 3238 3291 
Q 3600 1872 3850 541 
L 3344 416 
Q 3050 2091 2756 3153 
z
" transform="scale(0.015625)"/>
        <path id="MicrosoftYaHei-5b8c" d="M 275 1959 
L 6150 1959 
L 6150 1516 
L 4131 1516 
L 4131 191 
Q 4131 -222 4538 -222 
L 5200 -222 
Q 5625 -222 5675 65 
Q 5725 353 5744 884 
Q 5969 797 6294 697 
Q 6250 184 6181 -141 
Q 6094 -678 5425 -678 
L 4406 -678 
Q 3625 -678 3625 122 
L 3625 1516 
L 2503 1516 
Q 2488 -247 438 -834 
Q 313 -628 125 -372 
Q 1975 78 2006 1516 
L 275 1516 
L 275 1959 
z
M 325 4534 
L 3000 4534 
Q 2878 4788 2688 5128 
L 3175 5353 
Q 3422 4878 3575 4534 
L 6075 4534 
L 6075 3384 
L 5563 3384 
L 5563 4091 
L 838 4091 
L 838 3384 
L 325 3384 
L 325 4534 
z
M 1050 3253 
L 5450 3253 
L 5450 2816 
L 1050 2816 
L 1050 3253 
z
" transform="scale(0.015625)"/>
        <path id="MicrosoftYaHei-4e86" d="M 3038 2991 
Q 4106 3647 5025 4334 
L 331 4334 
L 331 4853 
L 5888 4853 
L 5888 4234 
Q 4769 3466 3600 2734 
L 3600 434 
Q 3600 -184 3363 -422 
Q 3131 -672 2506 -678 
Q 2163 -678 1488 -659 
Q 1450 -347 1388 -53 
Q 2013 -122 2463 -128 
Q 3038 -134 3038 441 
L 3038 2991 
z
" transform="scale(0.015625)"/>
       </defs>
       <use xlink:href="#MicrosoftYaHei-62c9"/>
       <use xlink:href="#MicrosoftYaHei-5b8c" transform="translate(100 0)"/>
       <use xlink:href="#MicrosoftYaHei-4e86" transform="translate(200 0)"/>
      </g>
     </g>
    </g>
    <g id="text_6">
     <!-- 推荐评级 -->
     <g style="fill: #262626" transform="translate(282.504777 353.534263) scale(0.11 -0.11)">
      <defs>
       <path id="MicrosoftYaHei-63a8" d="M 1694 3016 
Q 2488 3978 3106 5334 
L 3575 5178 
Q 3338 4681 3075 4222 
L 6200 4222 
L 6200 3797 
L 4650 3797 
L 4650 2828 
L 6113 2828 
L 6113 2403 
L 4650 2403 
L 4650 1434 
L 6113 1434 
L 6113 1009 
L 4650 1009 
L 4650 22 
L 6300 22 
L 6300 -391 
L 2875 -391 
L 2875 -859 
L 2400 -859 
L 2400 3150 
Q 2225 2903 2044 2666 
Q 1931 2803 1694 3016 
z
M 88 1978 
Q 506 2075 894 2175 
L 894 3691 
L 131 3691 
L 131 4128 
L 894 4128 
L 894 5316 
L 1363 5316 
L 1363 4128 
L 2088 4128 
L 2088 3691 
L 1363 3691 
L 1363 2297 
Q 1744 2400 2088 2503 
Q 2100 2216 2131 2016 
Q 1728 1903 1363 1797 
L 1363 -97 
Q 1363 -734 869 -766 
Q 556 -784 231 -778 
Q 206 -528 156 -259 
Q 469 -284 656 -284 
Q 894 -284 894 -41 
L 894 1663 
Q 500 1547 150 1441 
L 88 1978 
z
M 2875 22 
L 4175 22 
L 4175 1009 
L 2875 1009 
L 2875 22 
z
M 2875 1434 
L 4175 1434 
L 4175 2403 
L 2875 2403 
L 2875 1434 
z
M 2875 2828 
L 4175 2828 
L 4175 3797 
L 2875 3797 
L 2875 2828 
z
M 4019 5072 
L 4413 5316 
Q 4719 4922 4975 4541 
L 4544 4272 
Q 4313 4659 4019 5072 
z
" transform="scale(0.015625)"/>
       <path id="MicrosoftYaHei-8350" d="M 275 3541 
L 1984 3541 
Q 2059 3681 2131 3828 
L 2625 3828 
Q 2553 3681 2481 3541 
L 6138 3541 
L 6138 3103 
L 2250 3103 
Q 2016 2684 1763 2316 
L 1763 -791 
L 1288 -791 
L 1288 1681 
Q 856 1159 381 759 
Q 213 1009 88 1178 
Q 1044 1950 1738 3103 
L 275 3103 
L 275 3541 
z
M 2225 1228 
L 4106 1228 
L 4106 1534 
L 5019 2122 
L 2563 2122 
L 2563 2547 
L 5794 2547 
L 5794 2122 
L 4581 1353 
L 4581 1228 
L 6225 1228 
L 6225 791 
L 4581 791 
L 4581 -41 
Q 4581 -778 3900 -778 
Q 3506 -778 2813 -772 
Q 2781 -534 2731 -266 
Q 3306 -316 3781 -316 
Q 4106 -316 4106 34 
L 4106 791 
L 2225 791 
L 2225 1228 
z
M 263 4741 
L 1913 4741 
L 1913 5297 
L 2388 5297 
L 2388 4741 
L 4125 4741 
L 4125 5303 
L 4600 5303 
L 4600 4741 
L 6225 4741 
L 6225 4303 
L 4600 4303 
L 4600 3847 
L 4125 3847 
L 4125 4303 
L 2388 4303 
L 2388 3916 
L 1913 3916 
L 1913 4303 
L 263 4303 
L 263 4741 
z
" transform="scale(0.015625)"/>
       <path id="MicrosoftYaHei-8bc4" d="M 1750 2028 
L 3775 2028 
L 3775 4447 
L 2088 4447 
L 2088 4916 
L 5975 4916 
L 5975 4447 
L 4281 4447 
L 4281 2028 
L 6319 2028 
L 6319 1553 
L 4281 1553 
L 4281 -797 
L 3775 -797 
L 3775 1553 
L 1750 1553 
L 1750 2028 
z
M 2219 866 
Q 2238 553 2263 328 
Q 1456 -228 963 -628 
L 669 -209 
Q 881 -28 881 303 
L 881 2716 
L 100 2716 
L 100 3166 
L 1363 3166 
L 1363 241 
Q 1775 534 2219 866 
z
M 4725 2697 
Q 5175 3309 5563 4028 
L 6019 3753 
Q 5613 3091 5125 2403 
L 4725 2697 
z
M 2056 3791 
L 2450 4028 
Q 2919 3353 3288 2716 
L 2850 2434 
Q 2431 3209 2056 3791 
z
M 738 5222 
Q 1419 4522 1725 4184 
L 1288 3816 
Q 894 4334 356 4891 
L 738 5222 
z
" transform="scale(0.015625)"/>
      </defs>
      <use xlink:href="#MicrosoftYaHei-63a8"/>
      <use xlink:href="#MicrosoftYaHei-8350" transform="translate(100 0)"/>
      <use xlink:href="#MicrosoftYaHei-8bc4" transform="translate(200 0)"/>
      <use xlink:href="#MicrosoftYaHei-7ea7" transform="translate(300 0)"/>
     </g>
    </g>
   </g>
   <g id="matplotlib.axis_2">
    <g id="ytick_1">
     <g id="line2d_6">
      <path d="M 51.579062 319.713482 
L 557.430491 319.713482 
" clip-path="url(#p50456b84f1)" style="fill: none; stroke: #cccccc; stroke-linecap: round"/>
     </g>
     <g id="text_7">
      <!-- 0 -->
      <g style="fill: #262626" transform="translate(35.628594 324.110045) scale(0.11 -0.11)">
       <defs>
        <path id="MicrosoftYaHei-30" d="M 284 2325 
Q 284 3606 709 4264 
Q 1134 4922 1941 4922 
Q 3478 4922 3478 2441 
Q 3478 1216 3045 567 
Q 2613 -81 1831 -81 
Q 1094 -81 689 534 
Q 284 1150 284 2325 
z
M 909 2353 
Q 909 425 1888 425 
Q 2850 425 2850 2384 
Q 2850 4413 1906 4413 
Q 909 4413 909 2353 
z
" transform="scale(0.015625)"/>
       </defs>
       <use xlink:href="#MicrosoftYaHei-30"/>
      </g>
     </g>
    </g>
    <g id="ytick_2">
     <g id="line2d_7">
      <path d="M 51.579062 280.97067 
L 557.430491 280.97067 
" clip-path="url(#p50456b84f1)" style="fill: none; stroke: #cccccc; stroke-linecap: round"/>
     </g>
     <g id="text_8">
      <!-- 50 -->
      <g style="fill: #262626" transform="translate(29.178125 285.367233) scale(0.11 -0.11)">
       <defs>
        <path id="MicrosoftYaHei-35" d="M 3294 1494 
Q 3294 784 2823 350 
Q 2353 -84 1559 -84 
Q 878 -84 544 119 
L 544 744 
Q 1034 425 1544 425 
Q 2050 425 2361 704 
Q 2672 984 2672 1447 
Q 2672 1909 2348 2167 
Q 2025 2425 1434 2425 
Q 978 2425 613 2384 
L 791 4841 
L 3053 4841 
L 3053 4303 
L 1306 4303 
L 1206 2931 
L 1647 2950 
Q 2416 2950 2855 2567 
Q 3294 2184 3294 1494 
z
" transform="scale(0.015625)"/>
       </defs>
       <use xlink:href="#MicrosoftYaHei-35"/>
       <use xlink:href="#MicrosoftYaHei-30" transform="translate(58.642578 0)"/>
      </g>
     </g>
    </g>
    <g id="ytick_3">
     <g id="line2d_8">
      <path d="M 51.579062 242.227858 
L 557.430491 242.227858 
" clip-path="url(#p50456b84f1)" style="fill: none; stroke: #cccccc; stroke-linecap: round"/>
     </g>
     <g id="text_9">
      <!-- 100 -->
      <g style="fill: #262626" transform="translate(22.727656 246.624421) scale(0.11 -0.11)">
       <defs>
        <path id="MicrosoftYaHei-31" d="M 1781 0 
L 1781 4141 
Q 1638 3997 1295 3819 
Q 953 3641 663 3569 
L 663 4169 
Q 1047 4275 1484 4508 
Q 1922 4741 2156 4947 
L 2388 4947 
L 2388 0 
L 1781 0 
z
" transform="scale(0.015625)"/>
       </defs>
       <use xlink:href="#MicrosoftYaHei-31"/>
       <use xlink:href="#MicrosoftYaHei-30" transform="translate(58.642578 0)"/>
       <use xlink:href="#MicrosoftYaHei-30" transform="translate(117.285156 0)"/>
      </g>
     </g>
    </g>
    <g id="ytick_4">
     <g id="line2d_9">
      <path d="M 51.579062 203.485046 
L 557.430491 203.485046 
" clip-path="url(#p50456b84f1)" style="fill: none; stroke: #cccccc; stroke-linecap: round"/>
     </g>
     <g id="text_10">
      <!-- 150 -->
      <g style="fill: #262626" transform="translate(22.727656 207.881609) scale(0.11 -0.11)">
       <use xlink:href="#MicrosoftYaHei-31"/>
       <use xlink:href="#MicrosoftYaHei-35" transform="translate(58.642578 0)"/>
       <use xlink:href="#MicrosoftYaHei-30" transform="translate(117.285156 0)"/>
      </g>
     </g>
    </g>
    <g id="ytick_5">
     <g id="line2d_10">
      <path d="M 51.579062 164.742234 
L 557.430491 164.742234 
" clip-path="url(#p50456b84f1)" style="fill: none; stroke: #cccccc; stroke-linecap: round"/>
     </g>
     <g id="text_11">
      <!-- 200 -->
      <g style="fill: #262626" transform="translate(22.727656 169.138796) scale(0.11 -0.11)">
       <defs>
        <path id="MicrosoftYaHei-32" d="M 2666 3572 
Q 2666 3963 2419 4186 
Q 2172 4409 1747 4409 
Q 1447 4409 1140 4256 
Q 834 4103 569 3819 
L 569 4413 
Q 806 4659 1107 4790 
Q 1409 4922 1816 4922 
Q 2472 4922 2872 4570 
Q 3272 4219 3272 3619 
Q 3272 3084 3026 2693 
Q 2781 2303 2188 1894 
Q 1581 1475 1376 1294 
Q 1172 1113 1090 947 
Q 1009 781 1009 544 
L 3416 544 
L 3416 0 
L 372 0 
L 372 241 
Q 372 659 486 951 
Q 600 1244 862 1520 
Q 1125 1797 1681 2184 
Q 2250 2584 2458 2886 
Q 2666 3188 2666 3572 
z
" transform="scale(0.015625)"/>
       </defs>
       <use xlink:href="#MicrosoftYaHei-32"/>
       <use xlink:href="#MicrosoftYaHei-30" transform="translate(58.642578 0)"/>
       <use xlink:href="#MicrosoftYaHei-30" transform="translate(117.285156 0)"/>
      </g>
     </g>
    </g>
    <g id="ytick_6">
     <g id="line2d_11">
      <path d="M 51.579062 125.999422 
L 557.430491 125.999422 
" clip-path="url(#p50456b84f1)" style="fill: none; stroke: #cccccc; stroke-linecap: round"/>
     </g>
     <g id="text_12">
      <!-- 250 -->
      <g style="fill: #262626" transform="translate(22.727656 130.395984) scale(0.11 -0.11)">
       <use xlink:href="#MicrosoftYaHei-32"/>
       <use xlink:href="#MicrosoftYaHei-35" transform="translate(58.642578 0)"/>
       <use xlink:href="#MicrosoftYaHei-30" transform="translate(117.285156 0)"/>
      </g>
     </g>
    </g>
    <g id="ytick_7">
     <g id="line2d_12">
      <path d="M 51.579062 87.25661 
L 557.430491 87.25661 
" clip-path="url(#p50456b84f1)" style="fill: none; stroke: #cccccc; stroke-linecap: round"/>
     </g>
     <g id="text_13">
      <!-- 300 -->
      <g style="fill: #262626" transform="translate(22.727656 91.653172) scale(0.11 -0.11)">
       <defs>
        <path id="MicrosoftYaHei-33" d="M 447 809 
Q 944 425 1569 425 
Q 2069 425 2361 670 
Q 2653 916 2653 1328 
Q 2653 2247 1338 2247 
L 934 2247 
L 934 2753 
L 1319 2753 
Q 2484 2753 2484 3616 
Q 2484 4413 1594 4413 
Q 1084 4413 634 4069 
L 634 4647 
Q 1109 4922 1744 4922 
Q 2363 4922 2738 4598 
Q 3113 4275 3113 3759 
Q 3113 2809 2144 2538 
L 2144 2525 
Q 2669 2469 2973 2155 
Q 3278 1841 3278 1372 
Q 3278 719 2808 319 
Q 2338 -81 1556 -81 
Q 869 -81 447 175 
L 447 809 
z
" transform="scale(0.015625)"/>
       </defs>
       <use xlink:href="#MicrosoftYaHei-33"/>
       <use xlink:href="#MicrosoftYaHei-30" transform="translate(58.642578 0)"/>
       <use xlink:href="#MicrosoftYaHei-30" transform="translate(117.285156 0)"/>
      </g>
     </g>
    </g>
    <g id="ytick_8">
     <g id="line2d_13">
      <path d="M 51.579062 48.513798 
L 557.430491 48.513798 
" clip-path="url(#p50456b84f1)" style="fill: none; stroke: #cccccc; stroke-linecap: round"/>
     </g>
     <g id="text_14">
      <!-- 350 -->
      <g style="fill: #262626" transform="translate(22.727656 52.91036) scale(0.11 -0.11)">
       <use xlink:href="#MicrosoftYaHei-33"/>
       <use xlink:href="#MicrosoftYaHei-35" transform="translate(58.642578 0)"/>
       <use xlink:href="#MicrosoftYaHei-30" transform="translate(117.285156 0)"/>
      </g>
     </g>
    </g>
    <g id="text_15">
     <!-- Skill 数量 -->
     <g style="fill: #262626" transform="translate(15.993125 195.63885) rotate(-90) scale(0.11 -0.11)">
      <defs>
       <path id="MicrosoftYaHei-53" d="M 400 909 
Q 622 716 994 591 
Q 1366 466 1700 466 
Q 2719 466 2719 1191 
Q 2719 1394 2609 1556 
Q 2500 1719 2309 1844 
Q 2119 1969 1594 2228 
Q 866 2591 634 2902 
Q 403 3213 403 3613 
Q 403 4216 887 4569 
Q 1372 4922 2109 4922 
Q 2831 4922 3169 4747 
L 3169 4066 
Q 2731 4369 2063 4369 
Q 1619 4369 1339 4183 
Q 1059 3997 1059 3666 
Q 1059 3372 1253 3187 
Q 1447 3003 2094 2684 
Q 2806 2344 3090 2003 
Q 3375 1663 3375 1238 
Q 3375 600 2912 259 
Q 2450 -81 1628 -81 
Q 1341 -81 958 -1 
Q 575 78 400 197 
L 400 909 
z
" transform="scale(0.015625)"/>
       <path id="MicrosoftYaHei-6b" d="M 3484 0 
L 2650 0 
L 1172 1666 
L 1159 1666 
L 1159 0 
L 547 0 
L 547 5116 
L 1159 5116 
L 1159 1872 
L 1172 1872 
L 2575 3456 
L 3363 3456 
L 1800 1794 
L 3484 0 
z
" transform="scale(0.015625)"/>
       <path id="MicrosoftYaHei-69" d="M 472 4675 
Q 472 4838 583 4948 
Q 694 5059 856 5059 
Q 1022 5059 1136 4950 
Q 1250 4841 1250 4675 
Q 1250 4513 1136 4405 
Q 1022 4297 856 4297 
Q 691 4297 581 4405 
Q 472 4513 472 4675 
z
M 544 0 
L 544 3456 
L 1156 3456 
L 1156 0 
L 544 0 
z
" transform="scale(0.015625)"/>
       <path id="MicrosoftYaHei-6c" d="M 544 0 
L 544 5116 
L 1156 5116 
L 1156 0 
L 544 0 
z
" transform="scale(0.015625)"/>
       <path id="MicrosoftYaHei-20" transform="scale(0.015625)"/>
       <path id="MicrosoftYaHei-6570" d="M 4175 5303 
L 4675 5228 
Q 4544 4622 4369 4097 
L 6281 4097 
L 6281 3672 
L 5888 3672 
Q 5731 1834 5088 753 
Q 5594 66 6375 -372 
Q 6175 -647 6038 -866 
Q 5275 -372 4769 309 
Q 4194 -403 3400 -928 
Q 3263 -747 3044 -534 
Q 3919 41 4463 772 
Q 3956 1647 3794 2791 
Q 3663 2559 3519 2359 
Q 3394 2541 3206 2759 
Q 3931 3803 4175 5303 
z
M 150 1697 
L 1100 1697 
Q 1238 1934 1369 2184 
L 1819 2041 
Q 1719 1866 1619 1697 
L 3150 1697 
L 3150 1291 
Q 2913 678 2431 216 
Q 2775 53 3131 -109 
L 2856 -541 
Q 2469 -322 2050 -103 
Q 1344 -609 269 -903 
Q 169 -703 56 -466 
Q 969 -259 1600 128 
Q 1063 403 475 691 
Q 675 978 863 1284 
L 150 1284 
L 150 1697 
z
M 219 3847 
L 1656 3847 
L 1656 5247 
L 2119 5247 
L 2119 3847 
L 3319 3847 
L 3319 3434 
L 2119 3434 
L 2119 3053 
L 2306 3266 
Q 2888 2841 3281 2516 
L 2981 2166 
Q 2638 2491 2119 2897 
L 2119 2184 
L 1656 2184 
L 1656 3059 
Q 1088 2466 331 2016 
Q 213 2197 63 2397 
Q 850 2822 1506 3434 
L 219 3434 
L 219 3847 
z
M 5388 3672 
L 4219 3672 
Q 4188 3591 4150 3516 
Q 4263 2191 4775 1247 
Q 5275 2159 5388 3672 
z
M 1088 834 
Q 1531 634 2000 416 
Q 2431 784 2675 1284 
L 1375 1284 
Q 1231 1053 1088 834 
z
M 3038 5091 
L 3425 4834 
Q 3081 4384 2738 4003 
Q 2594 4128 2400 4266 
Q 2725 4647 3038 5091 
z
M 381 4816 
L 738 5059 
Q 1019 4716 1319 4322 
L 931 4047 
Q 656 4453 381 4816 
z
" transform="scale(0.015625)"/>
       <path id="MicrosoftYaHei-91cf" d="M 113 -278 
L 2981 -278 
L 2981 78 
L 475 78 
L 475 403 
L 2981 403 
L 2981 759 
L 1494 759 
L 1494 597 
L 1069 597 
L 1069 2516 
L 5350 2516 
L 5350 597 
L 4925 597 
L 4925 759 
L 3419 759 
L 3419 403 
L 5931 403 
L 5931 78 
L 3419 78 
L 3419 -278 
L 6288 -278 
L 6288 -616 
L 113 -616 
L 113 -278 
z
M 1119 5072 
L 5306 5072 
L 5306 3284 
L 4881 3284 
L 4881 3453 
L 1544 3453 
L 1544 3284 
L 1119 3284 
L 1119 5072 
z
M 163 3153 
L 6263 3153 
L 6263 2816 
L 163 2816 
L 163 3153 
z
M 1544 3778 
L 4881 3778 
L 4881 4116 
L 1544 4116 
L 1544 3778 
z
M 4881 4747 
L 1544 4747 
L 1544 4416 
L 4881 4416 
L 4881 4747 
z
M 3419 1084 
L 4925 1084 
L 4925 1491 
L 3419 1491 
L 3419 1084 
z
M 1494 1084 
L 2981 1084 
L 2981 1491 
L 1494 1491 
L 1494 1084 
z
M 4925 2191 
L 3419 2191 
L 3419 1791 
L 4925 1791 
L 4925 2191 
z
M 1494 1791 
L 2981 1791 
L 2981 2191 
L 1494 2191 
L 1494 1791 
z
" transform="scale(0.015625)"/>
      </defs>
      <use xlink:href="#MicrosoftYaHei-53"/>
      <use xlink:href="#MicrosoftYaHei-6b" transform="translate(57.714844 0)"/>
      <use xlink:href="#MicrosoftYaHei-69" transform="translate(112.158203 0)"/>
      <use xlink:href="#MicrosoftYaHei-6c" transform="translate(138.769531 0)"/>
      <use xlink:href="#MicrosoftYaHei-6c" transform="translate(165.380859 0)"/>
      <use xlink:href="#MicrosoftYaHei-20" transform="translate(191.992188 0)"/>
      <use xlink:href="#MicrosoftYaHei-6570" transform="translate(221.582031 0)"/>
      <use xlink:href="#MicrosoftYaHei-91cf" transform="translate(321.582031 0)"/>
     </g>
    </g>
   </g>
   <g id="patch_3">
    <path d="M 74.572309 319.713482 
L 151.216465 319.713482 
L 151.216465 261.599264 
L 74.572309 261.599264 
z
" clip-path="url(#p50456b84f1)" style="fill: #16a34a; stroke: #ffffff; stroke-linejoin: miter"/>
   </g>
   <g id="patch_4">
    <path d="M 170.377504 319.713482 
L 247.02166 319.713482 
L 247.02166 39.215523 
L 170.377504 39.215523 
z
" clip-path="url(#p50456b84f1)" style="fill: #2563eb; stroke: #ffffff; stroke-linejoin: miter"/>
   </g>
   <g id="patch_5">
    <path d="M 266.182699 319.713482 
L 342.826855 319.713482 
L 342.826855 265.473545 
L 266.182699 265.473545 
z
" clip-path="url(#p50456b84f1)" style="fill: #7c3aed; stroke: #ffffff; stroke-linejoin: miter"/>
   </g>
   <g id="patch_6">
    <path d="M 361.987894 319.713482 
L 438.63205 319.713482 
L 438.63205 315.064345 
L 361.987894 315.064345 
z
" clip-path="url(#p50456b84f1)" style="fill: #f97316; stroke: #ffffff; stroke-linejoin: miter"/>
   </g>
   <g id="patch_7">
    <path d="M 457.793088 319.713482 
L 534.437244 319.713482 
L 534.437244 308.090639 
L 457.793088 308.090639 
z
" clip-path="url(#p50456b84f1)" style="fill: #ef4444; stroke: #ffffff; stroke-linejoin: miter"/>
   </g>
   <g id="patch_8">
    <path d="M 51.579062 319.713482 
L 51.579062 25.190625 
" style="fill: none; stroke: #cccccc; stroke-width: 1.25; stroke-linejoin: miter; stroke-linecap: square"/>
   </g>
   <g id="patch_9">
    <path d="M 557.430491 319.713482 
L 557.430491 25.190625 
" style="fill: none; stroke: #cccccc; stroke-width: 1.25; stroke-linejoin: miter; stroke-linecap: square"/>
   </g>
   <g id="patch_10">
    <path d="M 51.579062 319.713482 
L 557.430491 319.713482 
" style="fill: none; stroke: #cccccc; stroke-width: 1.25; stroke-linejoin: miter; stroke-linecap: square"/>
   </g>
   <g id="patch_11">
    <path d="M 51.579062 25.190625 
L 557.430491 25.190625 
" style="fill: none; stroke: #cccccc; stroke-width: 1.25; stroke-linejoin: miter; stroke-linecap: square"/>
   </g>
   <g id="text_16">
    <!-- 75 -->
    <g style="fill: #262626" transform="translate(107.616731 245.491327) scale(0.09 -0.09)">
     <defs>
      <path id="MicrosoftYaHei-37" d="M 3422 4463 
Q 2659 3131 2223 1998 
Q 1788 866 1684 0 
L 1047 0 
Q 1163 853 1594 1947 
Q 2025 3041 2747 4300 
L 347 4300 
L 347 4841 
L 3422 4841 
L 3422 4463 
z
" transform="scale(0.015625)"/>
     </defs>
     <use xlink:href="#MicrosoftYaHei-37"/>
     <use xlink:href="#MicrosoftYaHei-35" transform="translate(58.642578 0)"/>
    </g>
    <!-- (14.2%) -->
    <g style="fill: #262626" transform="translate(96.884231 256.36192) scale(0.09 -0.09)">
     <defs>
      <path id="MicrosoftYaHei-28" d="M 1531 -1100 
Q 478 100 478 1847 
Q 478 3594 1531 4841 
L 2072 4841 
Q 1016 3544 1016 1853 
Q 1016 166 2066 -1100 
L 1531 -1100 
z
" transform="scale(0.015625)"/>
      <path id="MicrosoftYaHei-34" d="M 2906 4841 
L 2906 1644 
L 3631 1644 
L 3631 1138 
L 2906 1138 
L 2906 0 
L 2313 0 
L 2313 1138 
L 53 1138 
L 53 1616 
Q 656 2294 1265 3178 
Q 1875 4063 2272 4841 
L 2906 4841 
z
M 741 1644 
L 2313 1644 
L 2313 3950 
Q 1988 3366 1616 2817 
Q 1244 2269 741 1644 
z
" transform="scale(0.015625)"/>
      <path id="MicrosoftYaHei-2e" d="M 372 322 
Q 372 491 487 606 
Q 603 722 775 722 
Q 950 722 1065 605 
Q 1181 488 1181 322 
Q 1181 159 1065 42 
Q 950 -75 772 -75 
Q 600 -75 486 42 
Q 372 159 372 322 
z
" transform="scale(0.015625)"/>
      <path id="MicrosoftYaHei-25" d="M 272 3619 
Q 272 4213 589 4563 
Q 906 4913 1444 4913 
Q 1959 4913 2248 4591 
Q 2538 4269 2538 3694 
Q 2538 3122 2219 2765 
Q 1900 2409 1372 2409 
Q 872 2409 572 2740 
Q 272 3072 272 3619 
z
M 753 3650 
Q 753 3247 928 3028 
Q 1103 2809 1406 2809 
Q 1719 2809 1889 3036 
Q 2059 3263 2059 3675 
Q 2059 4078 1892 4298 
Q 1725 4519 1422 4519 
Q 1113 4519 933 4289 
Q 753 4059 753 3650 
z
M 4647 4841 
L 1538 -31 
L 1016 -31 
L 4125 4841 
L 4647 4841 
z
M 3172 1134 
Q 3172 1728 3489 2083 
Q 3806 2438 4341 2438 
Q 4853 2438 5143 2114 
Q 5434 1791 5434 1203 
Q 5434 634 5112 279 
Q 4791 -75 4272 -75 
Q 3769 -75 3470 261 
Q 3172 597 3172 1134 
z
M 3650 1163 
Q 3650 769 3825 548 
Q 4000 328 4303 328 
Q 4616 328 4786 556 
Q 4956 784 4956 1194 
Q 4956 1600 4786 1815 
Q 4616 2031 4319 2031 
Q 4000 2031 3825 1801 
Q 3650 1572 3650 1163 
z
" transform="scale(0.015625)"/>
      <path id="MicrosoftYaHei-29" d="M 78 -1100 
Q 1131 163 1131 1853 
Q 1131 3547 72 4841 
L 616 4841 
Q 1672 3603 1672 1847 
Q 1672 91 616 -1100 
L 78 -1100 
z
" transform="scale(0.015625)"/>
     </defs>
     <use xlink:href="#MicrosoftYaHei-28"/>
     <use xlink:href="#MicrosoftYaHei-31" transform="translate(33.398438 0)"/>
     <use xlink:href="#MicrosoftYaHei-34" transform="translate(92.041016 0)"/>
     <use xlink:href="#MicrosoftYaHei-2e" transform="translate(150.683594 0)"/>
     <use xlink:href="#MicrosoftYaHei-32" transform="translate(174.755859 0)"/>
     <use xlink:href="#MicrosoftYaHei-25" transform="translate(233.398438 0)"/>
     <use xlink:href="#MicrosoftYaHei-29" transform="translate(322.363281 0)"/>
    </g>
   </g>
   <g id="text_17">
    <!-- 362 -->
    <g style="fill: #262626" transform="translate(200.783098 23.107585) scale(0.09 -0.09)">
     <defs>
      <path id="MicrosoftYaHei-36" d="M 3181 4219 
Q 2803 4413 2391 4413 
Q 1763 4413 1381 3866 
Q 1000 3319 994 2372 
L 1009 2372 
Q 1353 3038 2106 3038 
Q 2734 3038 3109 2628 
Q 3484 2219 3484 1541 
Q 3484 831 3051 375 
Q 2619 -81 1947 -81 
Q 1209 -81 789 495 
Q 369 1072 369 2131 
Q 369 3413 920 4167 
Q 1472 4922 2372 4922 
Q 2888 4922 3181 4781 
L 3181 4219 
z
M 1031 1584 
Q 1031 1106 1286 765 
Q 1541 425 1963 425 
Q 2363 425 2613 719 
Q 2863 1013 2863 1475 
Q 2863 1975 2627 2253 
Q 2391 2531 1956 2531 
Q 1544 2531 1287 2250 
Q 1031 1969 1031 1584 
z
" transform="scale(0.015625)"/>
     </defs>
     <use xlink:href="#MicrosoftYaHei-33"/>
     <use xlink:href="#MicrosoftYaHei-36" transform="translate(58.642578 0)"/>
     <use xlink:href="#MicrosoftYaHei-32" transform="translate(117.285156 0)"/>
    </g>
    <!-- (68.56%) -->
    <g style="fill: #262626" transform="translate(190.050598 33.978179) scale(0.09 -0.09)">
     <defs>
      <path id="MicrosoftYaHei-38" d="M 306 1350 
Q 306 1769 556 2122 
Q 806 2475 1200 2625 
Q 884 2803 700 3081 
Q 516 3359 516 3684 
Q 516 4028 692 4312 
Q 869 4597 1183 4759 
Q 1497 4922 1875 4922 
Q 2256 4922 2572 4761 
Q 2888 4600 3063 4315 
Q 3238 4031 3238 3684 
Q 3238 3366 3058 3086 
Q 2878 2806 2559 2625 
Q 2953 2472 3200 2119 
Q 3447 1766 3447 1350 
Q 3447 938 3250 611 
Q 3053 284 2690 103 
Q 2328 -78 1875 -78 
Q 1425 -78 1065 103 
Q 706 284 506 612 
Q 306 941 306 1350 
z
M 906 1378 
Q 906 947 1172 687 
Q 1438 428 1878 428 
Q 2309 428 2582 692 
Q 2856 956 2856 1378 
Q 2856 1778 2579 2051 
Q 2303 2325 1878 2325 
Q 1456 2325 1181 2058 
Q 906 1791 906 1378 
z
M 1081 3634 
Q 1081 3309 1312 3076 
Q 1544 2844 1878 2844 
Q 2206 2844 2445 3078 
Q 2684 3313 2684 3634 
Q 2684 3963 2454 4191 
Q 2225 4419 1878 4419 
Q 1534 4419 1307 4195 
Q 1081 3972 1081 3634 
z
" transform="scale(0.015625)"/>
     </defs>
     <use xlink:href="#MicrosoftYaHei-28"/>
     <use xlink:href="#MicrosoftYaHei-36" transform="translate(33.398438 0)"/>
     <use xlink:href="#MicrosoftYaHei-38" transform="translate(92.041016 0)"/>
     <use xlink:href="#MicrosoftYaHei-2e" transform="translate(150.683594 0)"/>
     <use xlink:href="#MicrosoftYaHei-35" transform="translate(174.755859 0)"/>
     <use xlink:href="#MicrosoftYaHei-36" transform="translate(233.398438 0)"/>
     <use xlink:href="#MicrosoftYaHei-25" transform="translate(292.041016 0)"/>
     <use xlink:href="#MicrosoftYaHei-29" transform="translate(381.005859 0)"/>
    </g>
   </g>
   <g id="text_18">
    <!-- 70 -->
    <g style="fill: #262626" transform="translate(299.227121 249.365608) scale(0.09 -0.09)">
     <use xlink:href="#MicrosoftYaHei-37"/>
     <use xlink:href="#MicrosoftYaHei-30" transform="translate(58.642578 0)"/>
    </g>
    <!-- (13.26%) -->
    <g style="fill: #262626" transform="translate(285.855792 260.236202) scale(0.09 -0.09)">
     <use xlink:href="#MicrosoftYaHei-28"/>
     <use xlink:href="#MicrosoftYaHei-31" transform="translate(33.398438 0)"/>
     <use xlink:href="#MicrosoftYaHei-33" transform="translate(92.041016 0)"/>
     <use xlink:href="#MicrosoftYaHei-2e" transform="translate(150.683594 0)"/>
     <use xlink:href="#MicrosoftYaHei-32" transform="translate(174.755859 0)"/>
     <use xlink:href="#MicrosoftYaHei-36" transform="translate(233.398438 0)"/>
     <use xlink:href="#MicrosoftYaHei-25" transform="translate(292.041016 0)"/>
     <use xlink:href="#MicrosoftYaHei-29" transform="translate(381.005859 0)"/>
    </g>
   </g>
   <g id="text_19">
    <!-- 6 -->
    <g style="fill: #262626" transform="translate(397.671143 298.956407) scale(0.09 -0.09)">
     <use xlink:href="#MicrosoftYaHei-36"/>
    </g>
    <!-- (1.14%) -->
    <g style="fill: #262626" transform="translate(384.299815 309.827001) scale(0.09 -0.09)">
     <use xlink:href="#MicrosoftYaHei-28"/>
     <use xlink:href="#MicrosoftYaHei-31" transform="translate(33.398438 0)"/>
     <use xlink:href="#MicrosoftYaHei-2e" transform="translate(92.041016 0)"/>
     <use xlink:href="#MicrosoftYaHei-31" transform="translate(116.113281 0)"/>
     <use xlink:href="#MicrosoftYaHei-34" transform="translate(174.755859 0)"/>
     <use xlink:href="#MicrosoftYaHei-25" transform="translate(233.398438 0)"/>
     <use xlink:href="#MicrosoftYaHei-29" transform="translate(322.363281 0)"/>
    </g>
   </g>
   <g id="text_20">
    <!-- 15 -->
    <g style="fill: #262626" transform="translate(490.83751 291.982701) scale(0.09 -0.09)">
     <use xlink:href="#MicrosoftYaHei-31"/>
     <use xlink:href="#MicrosoftYaHei-35" transform="translate(58.642578 0)"/>
    </g>
    <!-- (2.84%) -->
    <g style="fill: #262626" transform="translate(480.10501 302.853295) scale(0.09 -0.09)">
     <use xlink:href="#MicrosoftYaHei-28"/>
     <use xlink:href="#MicrosoftYaHei-32" transform="translate(33.398438 0)"/>
     <use xlink:href="#MicrosoftYaHei-2e" transform="translate(92.041016 0)"/>
     <use xlink:href="#MicrosoftYaHei-38" transform="translate(116.113281 0)"/>
     <use xlink:href="#MicrosoftYaHei-34" transform="translate(174.755859 0)"/>
     <use xlink:href="#MicrosoftYaHei-25" transform="translate(233.398438 0)"/>
     <use xlink:href="#MicrosoftYaHei-29" transform="translate(322.363281 0)"/>
    </g>
   </g>
   <g id="text_21">
    <!-- 社区 Skill 推荐评级分布 -->
    <g style="fill: #262626" transform="translate(225.666886 19.190625) scale(0.15 -0.15)">
     <defs>
      <path id="MicrosoftYaHei-793e" d="M 2206 -116 
L 3963 -116 
L 3963 2947 
L 2475 2947 
L 2475 3434 
L 3963 3434 
L 3963 5266 
L 4463 5266 
L 4463 3434 
L 6050 3434 
L 6050 2947 
L 4463 2947 
L 4463 -116 
L 6238 -116 
L 6238 -603 
L 2206 -603 
L 2206 -116 
z
M 175 3584 
L 175 4034 
L 2206 4034 
L 2206 3572 
Q 1903 2966 1488 2425 
L 1488 -797 
L 1000 -797 
L 1000 1859 
Q 656 1497 256 1172 
Q 200 1397 81 1691 
Q 1044 2466 1675 3584 
L 175 3584 
z
M 794 5084 
L 1231 5303 
Q 1463 4934 1719 4447 
L 1256 4209 
Q 1013 4716 794 5084 
z
M 1563 2078 
L 1888 2347 
Q 2269 1922 2581 1541 
L 2194 1234 
Q 1894 1666 1563 2078 
z
" transform="scale(0.015625)"/>
      <path id="MicrosoftYaHei-533a" d="M 600 4872 
L 5975 4872 
L 5975 4384 
L 1131 4384 
L 1131 22 
L 6075 22 
L 6075 -453 
L 600 -453 
L 600 4872 
z
M 1613 3697 
L 1963 4028 
Q 2744 3384 3597 2616 
Q 4250 3322 4850 4153 
L 5306 3847 
Q 4650 2997 3975 2272 
Q 4753 1563 5588 753 
L 5156 316 
Q 4400 1106 3600 1878 
Q 2697 963 1763 266 
Q 1613 459 1363 672 
Q 2344 1341 3228 2231 
Q 2444 2972 1613 3697 
z
" transform="scale(0.015625)"/>
      <path id="MicrosoftYaHei-5206" d="M 900 2559 
L 5056 2559 
Q 5025 1497 4963 484 
Q 4888 -684 3856 -678 
Q 3350 -684 2788 -647 
Q 2750 -384 2700 -116 
Q 3181 -184 3775 -191 
Q 4400 -203 4463 541 
Q 4513 1216 4538 2097 
L 2616 2097 
Q 2541 1053 2181 416 
Q 1706 -422 588 -878 
Q 425 -666 231 -459 
Q 1269 -72 1725 666 
Q 2053 1225 2103 2097 
L 900 2097 
L 900 2559 
z
M 3488 5159 
L 3938 5353 
Q 4625 3678 6350 2847 
Q 6069 2553 5944 2372 
Q 4225 3366 3488 5159 
z
M 50 2766 
Q 1338 3678 2250 5253 
L 2694 5009 
Q 1744 3347 413 2341 
Q 281 2534 50 2766 
z
" transform="scale(0.015625)"/>
      <path id="MicrosoftYaHei-5e03" d="M 3250 3666 
L 3750 3666 
L 3750 2703 
L 5681 2703 
L 5681 541 
Q 5681 -197 5050 -197 
Q 4888 -197 4119 -191 
Q 4081 16 4019 316 
Q 4644 278 4769 278 
Q 5188 266 5188 666 
L 5188 2253 
L 3750 2253 
L 3750 -828 
L 3250 -828 
L 3250 2253 
L 1844 2253 
L 1844 -353 
L 1350 -353 
L 1350 2113 
Q 928 1553 450 1028 
Q 294 1253 94 1447 
Q 1241 2647 1969 3984 
L 200 3984 
L 200 4434 
L 2200 4434 
Q 2419 4884 2594 5353 
L 3088 5153 
Q 2934 4788 2766 4434 
L 6250 4434 
L 6250 3984 
L 2538 3984 
Q 2188 3325 1772 2703 
L 3250 2703 
L 3250 3666 
z
" transform="scale(0.015625)"/>
     </defs>
     <use xlink:href="#MicrosoftYaHei-793e"/>
     <use xlink:href="#MicrosoftYaHei-533a" transform="translate(100 0)"/>
     <use xlink:href="#MicrosoftYaHei-20" transform="translate(200 0)"/>
     <use xlink:href="#MicrosoftYaHei-53" transform="translate(229.589844 0)"/>
     <use xlink:href="#MicrosoftYaHei-6b" transform="translate(287.304688 0)"/>
     <use xlink:href="#MicrosoftYaHei-69" transform="translate(341.748047 0)"/>
     <use xlink:href="#MicrosoftYaHei-6c" transform="translate(368.359375 0)"/>
     <use xlink:href="#MicrosoftYaHei-6c" transform="translate(394.970703 0)"/>
     <use xlink:href="#MicrosoftYaHei-20" transform="translate(421.582031 0)"/>
     <use xlink:href="#MicrosoftYaHei-63a8" transform="translate(451.171875 0)"/>
     <use xlink:href="#MicrosoftYaHei-8350" transform="translate(551.171875 0)"/>
     <use xlink:href="#MicrosoftYaHei-8bc4" transform="translate(651.171875 0)"/>
     <use xlink:href="#MicrosoftYaHei-7ea7" transform="translate(751.171875 0)"/>
     <use xlink:href="#MicrosoftYaHei-5206" transform="translate(851.171875 0)"/>
     <use xlink:href="#MicrosoftYaHei-5e03" transform="translate(951.171875 0)"/>
    </g>
   </g>
  </g>
 </g>
 <defs>
  <clipPath id="p50456b84f1">
   <rect x="51.579062" y="25.190625" width="505.851429" height="294.522857"/>
  </clipPath>
 </defs>
</svg>
